<svg xmlns="http://www.w3.org/2000/svg" width="1500" height="2114"><rect width="100%" height="100%" fill="#313338"/><rect x="18" y="18" width="1464" height="2078" rx="18" fill="#2B2D31" stroke="#5865F2" stroke-width="2"/><text x="32" y="42" fill="#F2F3F5" font-family="Arial, sans-serif" font-size="20" font-weight="700">Dark Horse visible Discord output proof</text><g fill="#DBDEE1" font-family="DejaVu Sans Mono, Noto Color Emoji, monospace" font-size="18"><text x="32" y="72">━━━━━━━━━━━━━━━━━━━━━━━━━━━━</text><text x="32" y="95">🐎 NEW DARK HORSE SCAN</text><text x="32" y="118">╔══════════════════════════════════════╗</text><text x="32" y="141">║ ATLAS · DARK HORSE · MOVEMENT DIGEST ║</text><text x="32" y="164">╚══════════════════════════════════════╝</text><text x="32" y="187">Report ID: DH-PROTOTYPE-PARITY-PROOF</text><text x="32" y="210">Generated: 2026-05-18 17:28 UTC</text><text x="32" y="233">Part: 1/1</text><text x="32" y="256">━━━━━━━━━━━━━━━━━━━━━━━━━━━━</text><text x="32" y="279">╔══════════════════════════════════╗</text><text x="32" y="302">║           MARKET MOOD            ║</text><text x="32" y="325">╚══════════════════════════════════╝</text><text x="32" y="348">🟠🟠🟠🟠⚫ 4/5 — Elevated</text><text x="32" y="371"></text><text x="32" y="394">🟢 STANDOUTS</text><text x="32" y="417">Standouts on this scan: 3</text><text x="32" y="440">Symbol: EURUSD</text><text x="32" y="463">Direction: Long</text><text x="32" y="486">Score: publication-grade (&gt;=7/10)</text><text x="32" y="509">Move phase: watch</text><text x="32" y="532">Entry Validation: Wait for the entry/watch zone to confirm before action.</text><text x="32" y="555">🟡 LIFECYCLE SUMMARY</text><text x="32" y="578">Primary read: 3 standouts (1 FRESH · 1 STILL ACTIVE · 1 FADING). Lead: EURUSD FRE…</text><text x="32" y="601">Operational meaning: Standouts are listed in priority order; each carries a confi…</text><text x="32" y="624">Market impact: Standout setups derive from structural Bullish alignment + Corey live macro confirmation…</text><text x="32" y="647">↳ Expanded Terminology: available from dashboard controls</text><text x="32" y="670"></text><text x="32" y="693">╔══════════════════════════════════╗</text><text x="32" y="716">║   CURRENT ADVICE — AT RELEASE    ║</text><text x="32" y="739">╚══════════════════════════════════╝</text><text x="32" y="762">CURRENT ADVICE / WHAT TO DO NOW:</text><text x="32" y="785">1. Primary standout — EURUSD (FRESH Bullish): entry reference 1.10618 - 1.10668; confirmation condition 5m</text><text x="32" y="808">candle ope…</text><text x="32" y="831">CONFIRMATION: 5m candle opens inside 1.10618 - 1.10668 and closes above 1.10618; next candle must hold…</text><text x="32" y="854">$$: Account-percentage risk only: size so loss at 1.10563 is no more than 0.5% account equity (fresh-ca…</text><text x="32" y="877"></text><text x="32" y="900">🟠 ENTRY / WATCH ZONE</text><text x="32" y="923">🟠 WHERE TO ACT</text><text x="32" y="946">ENTRY: Watch EURUSD: trigger 1.10618 - 1.10668; invalidation 1.10563.</text><text x="32" y="969">WATCH: 5m candle opens inside 1.10618 - 1.10668 and closes above 1.10618; next candle must hold ab…</text><text x="32" y="992">CAUTION: AT TRIGGER: confirmed close required — do NOT pre-position above the trigger.</text><text x="32" y="1015">INVALIDATION: 1H close below 1.10563 invalidates the long idea; exposure is flattened at the published in…</text><text x="32" y="1038"></text><text x="32" y="1061">💵 DOLLAR RISK / RISK CAP</text><text x="32" y="1084">Account-percentage risk only: size so loss at 1.10563 is no more than 0.5% account equity (fresh-ca…</text><text x="32" y="1107"></text><text x="32" y="1130">🔵 WHAT THIS MEANS</text><text x="32" y="1153">Market impact: Standout setups derive from structural Bullish alignment + Corey live macro confirmation…</text><text x="32" y="1176">Standout setups derive from structural Bullish alignment + Corey live macro confirmation…</text><text x="32" y="1199"></text><text x="32" y="1222">🔵 WHAT TO DO NOW</text><text x="32" y="1245">1. Treat the candidate as watch-listed until the entry/watch zone confirms.</text><text x="32" y="1268">2. Size only from the published risk cap and invalidation reference.</text><text x="32" y="1291">3. Stand down if confirmation fails before the next scan.</text><text x="32" y="1314"></text><text x="32" y="1337">✅ WHAT CONFIRMS</text><text x="32" y="1360">5m candle opens inside 1.10618 - 1.10668 and closes above 1.10618; next candle must hold above 1.10…</text><text x="32" y="1383"></text><text x="32" y="1406">🟨 WHAT WOULD PROMOTE A CANDIDATE NEXT</text><text x="32" y="1429">5m candle opens inside 1.10618 - 1.10668 and closes above 1.10618; next candle must hold above 1.10643.</text><text x="32" y="1452"></text><text x="32" y="1475">⛔ WHAT CANCELS</text><text x="32" y="1498">1H close below 1.10563 invalidates the long idea; exposure is flattened at the published invalidati…</text><text x="32" y="1521"></text><text x="32" y="1544">╔══════════════════════════════════╗</text><text x="32" y="1567">║       BUILDING / PRE-RADAR       ║</text><text x="32" y="1590">╚══════════════════════════════════╝</text><text x="32" y="1613">Market impact: Standout setups derive from structural Bullish alignment + Corey live macro confirmation…</text><text x="32" y="1636"></text><text x="32" y="1659">╔══════════════════════════════════╗</text><text x="32" y="1682">║         CHART REFERENCE          ║</text><text x="32" y="1705">╚══════════════════════════════════╝</text><text x="32" y="1728">1H structural map + 5M / 15M execution; PNG attached when render succeeds.</text><text x="32" y="1751"></text><text x="32" y="1774">🧾 BRIEFING SUMMARY</text><text x="32" y="1797">Primary read: 3 standouts (1 FRESH · 1 STILL ACTIVE · 1 FADING). Lead: EURUSD FRE…</text><text x="32" y="1820">Operational meaning: Standouts are listed in priority order; each carries a confi…</text><text x="32" y="1843"></text><text x="32" y="1866">🟪 NEXT REVIEW</text><text x="32" y="1889">2026-05-18 17:43 UTC</text><text x="32" y="1912"></text><text x="32" y="1935">🔵 SOURCE / ENGINE STATUS</text><text x="32" y="1958">Source: ATLAS Dark Horse scanner · freshness: LIVE</text><text x="32" y="1981"></text><text x="32" y="2004">━━━━━━━━━━━━━━━━━━━━━━━━━━━━</text><text x="32" y="2027">✅ END OF DARK HORSE SCAN</text><text x="32" y="2050">Report ID: DH-PROTOTYPE-PARITY-PROOF</text><text x="32" y="2073">━━━━━━━━━━━━━━━━━━━━━━━━━━━━</text></g></svg>